# xmcd
#
# Track frame offsets: 
#        150
#        12053
#        20621
#        35133
#        52868
#        64204
#        77212
#        88738
#        98850
#        113562
#        121966
#        130509
#        140791
#        149336
#        161517
#        174685
#
# Disc length: 2458 seconds
#
# Revision: 2
# Processed by: cddbd v1.5.2PL0 Copyright (c) Steve Scherf et al.
# Submitted via: ExactAudioCopy v1.0b3
#
DISCID=d8099810
DTITLE=Various Artist - Country Hoedown
DYEAR=1900
DGENRE=Country
TTITLE0=Billie Joe Spears - What Have They Done to my Song
TTITLE1=Billie Joe Spears - You're My Man
TTITLE2=Conway Twitty - I Need Your Lovin'
TTITLE3=Glen Campbell - It's Your World Girls and Boys
TTITLE4=Hank Thompson - Oklahoma Hills
TTITLE5=Patsy Cline - If I Could See the World
TTITLE6=Patsy Cline - I've Loved and Lost Again
TTITLE7=Patsy Cline - Three Cigarettes (in an Ashtray)
TTITLE8=Roy Clark - Somewhere Between Love and Tomorrow
TTITLE9=Waylon Jennings - Abilene
TTITLE10=Waylon Jennings - Love's Gonna Live Here
TTITLE11=Waylon Jennings - Money
TTITLE12=Webb Pierce - Slowly
TTITLE13=Waylon Jennings - The Shelter of Your Arms
TTITLE14=Hank Thompson - Wild Side of Life
TTITLE15=Jimmy Dean - Freight Train Blues
EXTD=
EXTT0=
EXTT1=
EXTT2=
EXTT3=
EXTT4=
EXTT5=
EXTT6=
EXTT7=
EXTT8=
EXTT9=
EXTT10=
EXTT11=
EXTT12=
EXTT13=
EXTT14=
EXTT15=
PLAYORDER=
